<?xml version="1.0" encoding="UTF-8" standalone="no"?>
<svg
   viewBox="0 0 413.59 113"
   version="1.1"
   id="svg28"
   sodipodi:docname="boh-hbg-green-gold.svg"
   inkscape:version="1.4 (86a8ad7, 2024-10-11)"
   xmlns:inkscape="http://www.inkscape.org/namespaces/inkscape"
   xmlns:sodipodi="http://sodipodi.sourceforge.net/DTD/sodipodi-0.dtd"
   xmlns="http://www.w3.org/2000/svg"
   xmlns:svg="http://www.w3.org/2000/svg"
   xmlns:rdf="http://www.w3.org/1999/02/22-rdf-syntax-ns#"
   xmlns:cc="http://creativecommons.org/ns#"
   xmlns:dc="http://purl.org/dc/elements/1.1/">
  <sodipodi:namedview
     id="namedview28"
     pagecolor="#ffffff"
     bordercolor="#000000"
     borderopacity="0.25"
     inkscape:showpageshadow="2"
     inkscape:pageopacity="0.0"
     inkscape:pagecheckerboard="0"
     inkscape:deskcolor="#d1d1d1"
     inkscape:zoom="4.2796006"
     inkscape:cx="206.795"
     inkscape:cy="56.4305"
     inkscape:window-width="1920"
     inkscape:window-height="1009"
     inkscape:window-x="1912"
     inkscape:window-y="-8"
     inkscape:window-maximized="1"
     inkscape:current-layer="svg28" />
  <defs
     id="defs1">
    <style
       id="style1">.cls-1{fill:#008261;}.cls-2{fill:#ffd100;}</style>
  </defs>
  <title
     id="title1">boh_hbg_green_gold</title>
  <g
     id="Layer_2"
     data-name="Layer 2">
    <g
       id="Layer_1_copy_2"
       data-name="Layer 1 copy 2">
      <polygon
         class="cls-1"
         points="309.1 97.63 309.1 50.52 310.29 50.52 310.29 97.63 309.1 97.63 309.1 97.63"
         id="polygon1" />
      <path
         class="cls-2"
         d="M197.87,76.22s.76-41.14-104.15-31.82C39,49.26,0,87.67,0,90.13s32.07,4.77,55.45,4.42c21.48-.32,51.66-1,57.5-2.1.55-1.69,3.36-26.12,25.26-34.68C184.75,39.59,197.87,76.22,197.87,76.22Z"
         id="path1" />
      <path
         class="cls-1"
         d="M198,59a18.32,18.32,0,0,0-7,1.4c.56.57,1.1,1.16,1.61,1.76A9.72,9.72,0,0,1,198,60.74c8.31,0,10.54,7.37,10.54,15.51s-2.23,15.5-10.54,15.5-10.54-7.37-10.54-15.5c0-4.15.59-8.09,2.25-11a32.77,32.77,0,0,0-2.66-2.59,16.59,16.59,0,0,0-6.44,13.56c0,10.88,8.57,17.21,17.39,17.21s17.39-6.33,17.39-17.21S206.85,59,198,59Z"
         id="path2" />
      <path
         class="cls-1"
         d="M139.87,91.41c3.94,0,5-1.2,5-7.71V50.46c0-9.08-.68-9.69-3.94-10.63V38.46l5.74-2.65a6.86,6.86,0,0,1,2.74-.94,1.39,1.39,0,0,1,1.46,1.45v26.9A15.22,15.22,0,0,1,161.63,59c5.74,0,12.42,1.89,12.42,11.91V83.7c0,6.51,1,7.71,5.06,7.71v1.37H163.69V91.41c3.34,0,4.37-1.2,4.37-7.71V72.39c0-6.94-3-10.45-8.91-10.45-3.26,0-6,1.46-8.31,4.54V83.7c0,6.51,1,7.71,5.91,7.71v1.37H139.87Z"
         id="path3" />
      <path
         class="cls-1"
         d="M228,107.09c0,3.17.51,3.6,6.51,4.54V113H216.9v-1.37c4.71-1,5.14-1.54,5.14-4.54v-39c0-5.23-3.51-4.11-3.51-5.57,0-.77,1.37-1.11,3.51-2,1-.43,4-2.06,5.31-2.06.34,0,.69.26.69.94v4.37c2.82-2.31,5.82-4.8,11.48-4.8s14.82,3.34,14.82,16.63c0,9.16-5.23,17.81-17.82,17.81A18.77,18.77,0,0,1,228,91.58Zm0-30.24c0,10.45,1.45,14.9,9.33,14.9s11-6.77,11-13.79c0-11.57-6.08-16.36-11.74-16.36-3.34,0-6.16,2-8.56,4.11Z"
         id="path4" />
      <path
         class="cls-1"
         d="M264.44,70.68a18.08,18.08,0,0,0-.6,5c0,7.63,4.62,14.31,12.59,14.31,3.43,0,6.17-1.2,9.94-3.77l1,1.37c-3.85,3.09-7.62,5.82-13.19,5.82-10.19,0-16.36-8.73-16.36-16.27,0-10.8,7.54-18.17,16.53-18.17,7.2,0,12.85,5.92,12.85,11.23,0,.34-.26.43-.85.43Zm16.79-2.06c-.35-4.62-3.34-7.88-7.71-7.88-5,0-7.71,4-8.66,7.88Z"
         id="path5" />
      <path
         class="cls-1"
         d="M113.85,0V14.56A7.41,7.41,0,0,1,119.34,12c3.66,0,7.75,2.47,7.75,8.3a8.55,8.55,0,0,1-8.9,8.82c-2.17,0-3.7-.69-4.68-.69a9.47,9.47,0,0,0-2.3.69.32.32,0,0,1-.34-.35V5c0-1.32-.34-1.49-1.11-1.87s-.76-.38-.76-.56V2.09c0-.35.21-.52.63-.69L113.21,0Zm0,23.5c0,3.41,2.17,4.77,4.51,4.77,3.28,0,5.33-2.38,5.33-7.06,0-4.94-2.13-7.75-5.45-7.75a6.34,6.34,0,0,0-4.39,2.17Z"
         id="path6" />
      <path
         class="cls-1"
         d="M128.44,28.1c2,0,2.55-.59,2.55-3.83V16.69c0-1-.21-1.44-1-1.83-.59-.3-.8-.34-.8-.59s.34-.47,2-1.2c1.88-.81,2-1.32,2.43-1.32.3,0,.43.17.43.47v1.41c0,.33.17.51.42.51S136.91,12,139.09,12c1.15,0,1.87.51,1.87,1.49,0,.77-.47,1.45-2,1.45-.55,0-1.57-.13-2.34-.13-1.53,0-2.68.76-2.68,3.06v7c0,2.64.46,3.14,2.63,3.23v.68h-8.17Z"
         id="path7" />
      <path
         class="cls-1"
         d="M143,28.1c2,0,2.48-.59,2.48-3.74V18.52c0-2.94-.18-3.53-1.41-3.7-.68-.09-.9-.22-.9-.55s.22-.56.6-.73c.77-.26,3.75-1.53,4.22-1.53s.51.21.51.47c0,.42-.05,1.79-.05,3.19v8.69c0,3.15.52,3.74,2.52,3.74v.68h-8Zm4-26.66a1.82,1.82,0,0,1,1.82,1.84,1.83,1.83,0,1,1-3.66,0A1.83,1.83,0,0,1,146.94,1.44Z"
         id="path8" />
      <path
         class="cls-1"
         d="M166,26.79a8.39,8.39,0,0,1-5.75,2.34A7.92,7.92,0,0,1,152.1,21a9.13,9.13,0,0,1,8.73-9,7.26,7.26,0,0,1,5,1.66V5.33c0-2.73-.13-3.07-1.58-3.07-.93,0-1.1-.09-1.1-.39s.25-.34.89-.55C165.17.93,167.9,0,168.28,0s.51.09.51.47v25.8c0,.81.3,1,.81,1a7.48,7.48,0,0,0,1.19-.26c.17,0,.22.21.22.38s-.09.34-.56.51c-.81.3-3.07.81-4.47,1.2Zm-.17-8c0-4.09-1.28-6-4.64-6-3.75,0-5.92,3.15-5.92,7.62,0,4.77,2.77,7.62,5.71,7.62a6.12,6.12,0,0,0,4.68-2.59,9.45,9.45,0,0,0,.17-2.82Z"
         id="path9" />
      <path
         class="cls-1"
         d="M180.9,24.23A6.69,6.69,0,0,1,179,24c-1.1.77-2.51,1.32-2.51,2.31,0,1.19,1.32,1.44,8.77,1.78,3.07.13,4.35,1.45,4.35,3.7,0,5.54-5.41,7-10.18,7-3.24,0-7.45-.76-7.45-3.57,0-2,1.45-3,4.85-4.73-1.74-.85-2.94-2.3-2.94-3.54s2-2,4-3.45a5.86,5.86,0,0,1-4-5.57c0-3.7,2.77-6,6.69-6,2.68,0,5,1,5.79,1s2.13-.51,3.32-.51c1,0,1.45.25,1.45.89s-.51,1.15-1.36,1.15-1.32-.51-2-.51a.84.84,0,0,0-.93.9c0,1.15.55,1.36.55,3.36C187.37,21.8,184.13,24.23,180.9,24.23ZM180.73,38c3.45,0,6.73-1.53,6.73-4.64,0-1.79-1.49-2.51-9-2.51-1.66.64-3.49,1.91-3.49,3.92S177.58,38,180.73,38Zm-.47-25.12c-2.26,0-3.66,2-3.66,4.9,0,3.15,1.49,5.62,4.38,5.62,2.26,0,3.67-1.45,3.67-4.18C184.65,15.63,183.15,12.86,180.26,12.86Z"
         id="path10" />
      <path
         class="cls-1"
         d="M194.76,17.8a9.09,9.09,0,0,0-.3,2.51c0,3.79,2.3,7.11,6.26,7.11a8.31,8.31,0,0,0,4.94-1.87l.51.68c-1.92,1.53-3.79,2.9-6.56,2.9A8.2,8.2,0,0,1,191.48,21c0-5.37,3.75-9,8.22-9,3.58,0,6.39,2.94,6.39,5.57,0,.18-.13.22-.43.22Zm8.34-1a3.85,3.85,0,0,0-3.83-3.92c-2.46,0-3.82,2-4.3,3.92Z"
         id="path11" />
      <path
         class="cls-1"
         d="M210.93,43.48a8.24,8.24,0,1,1-8.24-8.15A8,8,0,0,1,210.93,43.48Zm-13.22,0c0,3.85,1,7.35,5,7.35s5-3.5,5-7.35-1.05-7.34-5-7.34S197.71,39.63,197.71,43.48Z"
         id="path12" />
      <path
         class="cls-1"
         d="M212,50.66c2.15,0,2.64-.56,2.64-3.65V37h-2.35c0-1.05.44-1.21,2.35-1.62.08-6.65,2.72-11.52,8.35-11.52,2.23,0,3.82.81,3.82,2.07a1.14,1.14,0,0,1-1.26,1.1c-1.38,0-2.64-1.95-4.3-1.95-2,0-3.77,1.7-3.77,8v2.52h4.22c.36,0,.52.08.52.4a4.33,4.33,0,0,1-.2.77c0,.12-.2.2-.53.2h-4V47c0,3.09.49,3.65,3.16,3.65v.65H212Z"
         id="path13" />
      <path
         class="cls-1"
         d="M337.2,69.91h-1.87V63.45H329v6.46H327.1V56.06H329v5.81h6.36V56.06h1.87Z"
         id="path14" />
      <path
         class="cls-1"
         d="M347.37,69.91h-1.58v-.75a6,6,0,0,1-3.07,1,3.23,3.23,0,0,1-2.35-.86,3,3,0,0,1-.89-2.25q0-3.4,5.73-3.41h.46V63a2,2,0,0,0-.42-1.41,2.4,2.4,0,0,0-1.76-.52,5.48,5.48,0,0,0-2.76.79l-.65-1.18a4,4,0,0,1,1-.57,6.92,6.92,0,0,1,2.55-.47,4,4,0,0,1,2.91,1,2.6,2.6,0,0,1,.69,1.27,8.75,8.75,0,0,1,.12,1.72Zm-1.7-2v-3h-.52c-1.77,0-2.95.29-3.53.88a1.54,1.54,0,0,0-.46,1.16,1.59,1.59,0,0,0,.53,1.24,2.09,2.09,0,0,0,1.46.48A6,6,0,0,0,345.67,67.93Z"
         id="path15" />
      <path
         class="cls-1"
         d="M355.7,59.77l-.42,1.42a3.61,3.61,0,0,0-.75-.07,3.66,3.66,0,0,0-3,1.64v7.15H349.8v-10h1.58v1.31a4.13,4.13,0,0,1,3.24-1.58A3.22,3.22,0,0,1,355.7,59.77Z"
         id="path16" />
      <path
         class="cls-1"
         d="M363,59.77l-.42,1.42a3.61,3.61,0,0,0-.75-.07,3.66,3.66,0,0,0-3,1.64v7.15h-1.76v-10h1.58v1.31a3.8,3.8,0,0,1,.89-.84,4,4,0,0,1,2.34-.74A3.24,3.24,0,0,1,363,59.77Z"
         id="path17" />
      <path
         class="cls-1"
         d="M366.33,56.66a1.09,1.09,0,0,1-.31.77,1,1,0,0,1-.77.31,1,1,0,0,1-.77-.31,1,1,0,0,1-.31-.77,1.06,1.06,0,0,1,1.08-1.08,1,1,0,0,1,.77.31A1.07,1.07,0,0,1,366.33,56.66Zm-.19,13.25h-1.76v-10h1.76Z"
         id="path18" />
      <path
         class="cls-1"
         d="M375.05,67.1A2.72,2.72,0,0,1,374,69.35a4.14,4.14,0,0,1-2.61.83,6.72,6.72,0,0,1-2.43-.46,3.9,3.9,0,0,1-1-.54l.66-1.22a5.62,5.62,0,0,0,2.68.76,2.22,2.22,0,0,0,1.38-.41,1.29,1.29,0,0,0,.55-1.08c0-.56-.43-1-1.29-1.46l-2.39-1.14a2.58,2.58,0,0,1-.3-4.25,3.9,3.9,0,0,1,2.53-.79,4.92,4.92,0,0,1,3.17.89l-.66,1.18a4.86,4.86,0,0,0-2.39-.68,2.19,2.19,0,0,0-1.37.38,1.2,1.2,0,0,0-.48,1c0,.51.44,1,1.31,1.39,1.55.73,2.35,1.12,2.41,1.16A2.57,2.57,0,0,1,375.05,67.1Z"
         id="path19" />
      <path
         class="cls-1"
         d="M385.91,64.7a5.53,5.53,0,0,1-1.43,3.94,4.94,4.94,0,0,1-3.74,1.52,11.09,11.09,0,0,1-3.68-.73V54.94h1.77v5.48a4.44,4.44,0,0,1,2.68-.83A4,4,0,0,1,384.69,61,5.45,5.45,0,0,1,385.91,64.7Zm-1.79,0a4.05,4.05,0,0,0-.81-2.65,2.59,2.59,0,0,0-2.1-1,4.22,4.22,0,0,0-2.38.85v6.42a6.45,6.45,0,0,0,1.87.31,3.13,3.13,0,0,0,2.49-1.08A4.22,4.22,0,0,0,384.12,64.72Z"
         id="path20" />
      <path
         class="cls-1"
         d="M395.94,69.91h-1.58v-.75a5.56,5.56,0,0,1-3.14,1,3.35,3.35,0,0,1-2.45-.83,3.07,3.07,0,0,1-.83-1.58,12.25,12.25,0,0,1-.12-2.08V59.86h1.76v5.71a11.31,11.31,0,0,0,.08,1.6,1.8,1.8,0,0,0,.46,1,1.87,1.87,0,0,0,1.41.5,4.6,4.6,0,0,0,1.77-.41,4.89,4.89,0,0,0,.87-.46v-8h1.77Z"
         id="path21" />
      <path
         class="cls-1"
         d="M404.41,59.77,404,61.19a3.51,3.51,0,0,0-.74-.07,3.66,3.66,0,0,0-3,1.64v7.15h-1.77v-10h1.58v1.31a4.13,4.13,0,0,1,3.24-1.58A3.14,3.14,0,0,1,404.41,59.77Z"
         id="path22" />
      <path
         class="cls-1"
         d="M413.59,70a9.67,9.67,0,0,1-.13,1.87,3.41,3.41,0,0,1-.87,1.66,4.6,4.6,0,0,1-3.41,1.18,6.85,6.85,0,0,1-2.86-.6,3.67,3.67,0,0,1-1.16-.73l.76-1.18,1,.54a5.23,5.23,0,0,0,2.14.48,3,3,0,0,0,2.14-.69,2,2,0,0,0,.56-1,8.35,8.35,0,0,0,.1-1.58v-.72a5.66,5.66,0,0,1-2.74.79,4,4,0,0,1-3.2-1.46,5.28,5.28,0,0,1-1.16-3.5,5.4,5.4,0,0,1,1.44-3.86,4.89,4.89,0,0,1,3.69-1.52,9.54,9.54,0,0,1,3.74.93Zm-1.77-2.33V61.5a5,5,0,0,0-2-.42,3,3,0,0,0-2.39,1.05,4.06,4.06,0,0,0-.91,2.77,3.91,3.91,0,0,0,.81,2.58,2.57,2.57,0,0,0,2.07,1A4.48,4.48,0,0,0,411.82,67.62Z"
         id="path23" />
      <path
         class="cls-1"
         d="M337.76,90.67h-2l-1.26-3.61h-5.71l-1.27,3.61h-1.87l5-13.85h2ZM334,85.54l-2.35-6.75-2.32,6.75Z"
         id="path24" />
      <path
         class="cls-1"
         d="M345.11,80.54,344.69,82a4.47,4.47,0,0,0-.75-.06,3.66,3.66,0,0,0-3,1.64v7.14h-1.76v-10h1.58v1.31A4.22,4.22,0,0,1,344,80.35,3,3,0,0,1,345.11,80.54Z"
         id="path25" />
      <path
         class="cls-1"
         d="M354.22,85.38c0,.07,0,.19,0,.38s0,.31,0,.36h-7a3.35,3.35,0,0,0,.75,2.29,3,3,0,0,0,2.41,1,6.52,6.52,0,0,0,2.84-.78l.67,1.2a6.45,6.45,0,0,1-3.66,1.08,4.43,4.43,0,0,1-3.53-1.48,5.39,5.39,0,0,1-1.24-3.71,5.71,5.71,0,0,1,1.28-3.88,4.27,4.27,0,0,1,3.39-1.48,3.73,3.73,0,0,1,3,1.34A5.6,5.6,0,0,1,354.22,85.38Zm-1.7-.65a3.65,3.65,0,0,0-.5-1.93,2.12,2.12,0,0,0-1.91-1,2.7,2.7,0,0,0-2,.81,3.3,3.3,0,0,0-.92,2.16Z"
         id="path26" />
      <path
         class="cls-1"
         d="M363.48,90.67H361.9v-.75a6,6,0,0,1-3.07,1,3.23,3.23,0,0,1-2.34-.86,3,3,0,0,1-.9-2.26q0-3.41,5.73-3.4h.46v-.65a2,2,0,0,0-.42-1.41,2.45,2.45,0,0,0-1.76-.52,5.61,5.61,0,0,0-2.76.79l-.65-1.18a4.42,4.42,0,0,1,1-.56,6.74,6.74,0,0,1,2.56-.48,3.93,3.93,0,0,1,2.9,1,2.49,2.49,0,0,1,.69,1.26,8.93,8.93,0,0,1,.12,1.73Zm-1.7-2v-3h-.52c-1.77,0-2.95.29-3.53.87a1.6,1.6,0,0,0-.46,1.16A1.62,1.62,0,0,0,357.8,89a2.12,2.12,0,0,0,1.47.48A6,6,0,0,0,361.78,88.7Z"
         id="path27" />
      <path
         class="cls-1"
         d="M301.15,66.65A4.79,4.79,0,1,1,293,63.26a4.79,4.79,0,0,1,6.77,0A4.61,4.61,0,0,1,301.15,66.65Zm-.81,0a4,4,0,1,0-6.82,2.82,4.11,4.11,0,0,0,5.67,0A3.82,3.82,0,0,0,300.34,66.65Zm-1.73,2.59h-.83l-.66-1.36a2.05,2.05,0,0,0-.48-.75,1.77,1.77,0,0,0-.81-.13h-.35v2.24h-.77V64H296a2.5,2.5,0,0,1,1.77.48,1.4,1.4,0,0,1,.39,1c0,.78-.44,1.18-1.31,1.23.39,0,.72.28,1,.81Zm-1.23-3.81c0-.53-.46-.79-1.38-.79h-.52v1.71a6.05,6.05,0,0,0,1.2-.07A.83.83,0,0,0,297.38,65.43Z"
         id="path28" />
    </g>
  </g>
  <metadata
     id="metadata28">
    <rdf:RDF>
      <cc:Work
         rdf:about="">
        <dc:title>boh_hbg_green_gold</dc:title>
      </cc:Work>
    </rdf:RDF>
  </metadata>
</svg>
