<?xml version="1.0" encoding="UTF-8" standalone="no"?>
<svg
   viewBox="0 0 197.87015 94.585289"
   version="1.1"
   id="svg28"
   sodipodi:docname="boh-boh-bridge-white-gold.svg"
   inkscape:version="1.4 (e7c3feb1, 2024-10-09)"
   width="197.87015"
   height="94.585289"
   xmlns:inkscape="http://www.inkscape.org/namespaces/inkscape"
   xmlns:sodipodi="http://sodipodi.sourceforge.net/DTD/sodipodi-0.dtd"
   xmlns="http://www.w3.org/2000/svg"
   xmlns:svg="http://www.w3.org/2000/svg"
   xmlns:rdf="http://www.w3.org/1999/02/22-rdf-syntax-ns#"
   xmlns:cc="http://creativecommons.org/ns#"
   xmlns:dc="http://purl.org/dc/elements/1.1/">
  <sodipodi:namedview
     id="namedview28"
     pagecolor="#ffffff"
     bordercolor="#000000"
     borderopacity="0.25"
     inkscape:showpageshadow="2"
     inkscape:pageopacity="0.0"
     inkscape:pagecheckerboard="0"
     inkscape:deskcolor="#d1d1d1"
     inkscape:zoom="4.2796006"
     inkscape:cx="216.72583"
     inkscape:cy="56.547333"
     inkscape:window-width="1920"
     inkscape:window-height="1027"
     inkscape:window-x="0"
     inkscape:window-y="25"
     inkscape:window-maximized="1"
     inkscape:current-layer="svg28"
     showgrid="false" />
  <defs
     id="defs1">
    <style
       id="style1">
   .cls-1 {
    fill: #ffffff;
   }

   .cls-2 {
    fill: #ffd100;
   }
  </style>
  </defs>
  <title
     id="title1">boh_hbg_white_green</title>
  <g
     id="Layer_2"
     data-name="Layer 2"
     inkscape:label="BoH Tight">
    <g
       id="Layer_1_copy_2"
       data-name="Layer 1 copy 2">
      <path
         class="cls-2"
         name="Bridge"
         d="m 197.87,76.22 c 0,0 0.76,-41.14 -104.15,-31.82 C 39,49.26 0,87.67 0,90.13 c 0,2.46 32.07,4.77 55.45,4.42 21.48,-0.32 51.66,-1 57.5,-2.1 0.55,-1.69 3.36,-26.12 25.26,-34.68 46.54,-18.18 59.66,18.45 59.66,18.45 z"
         id="path1"
         inkscape:label="bridge polygon" />
      <path
         class="cls-1"
         name="registered"
         d="m 186.24994,66.65 a 4.79,4.79 0 1 1 -8.15,-3.39 4.79,4.79 0 0 1 6.77,0 4.61,4.61 0 0 1 1.38,3.39 z m -0.81,0 a 4,4 0 1 0 -6.82,2.82 4.11,4.11 0 0 0 5.67,0 3.82,3.82 0 0 0 1.15,-2.82 z m -1.73,2.59 h -0.83 l -0.66,-1.36 a 2.05,2.05 0 0 0 -0.48,-0.75 1.77,1.77 0 0 0 -0.81,-0.13 h -0.35 v 2.24 h -0.77 V 64 h 1.29 a 2.5,2.5 0 0 1 1.77,0.48 1.4,1.4 0 0 1 0.39,1 c 0,0.78 -0.44,1.18 -1.31,1.23 0.39,0 0.72,0.28 1,0.81 z m -1.23,-3.81 c 0,-0.53 -0.46,-0.79 -1.38,-0.79 h -0.52 v 1.71 a 6.05,6.05 0 0 0 1.2,-0.07 0.83,0.83 0 0 0 0.7,-0.85 z"
         id="path28"
         inkscape:label="registered" />
      <path
         class="cls-1"
         name="h"
         d="m 139.87,91.41 c 3.94,0 5,-1.2 5,-7.71 V 50.46 c 0,-9.08 -0.68,-9.69 -3.94,-10.63 v -1.37 l 5.74,-2.65 a 6.86,6.86 0 0 1 2.74,-0.94 1.39,1.39 0 0 1 1.46,1.45 v 26.9 A 15.22,15.22 0 0 1 161.63,59 c 5.74,0 12.42,1.89 12.42,11.91 V 83.7 c 0,6.51 1,7.71 5.06,7.71 v 1.37 h -15.42 v -1.37 c 3.34,0 4.37,-1.2 4.37,-7.71 V 72.39 c 0,-6.94 -3,-10.45 -8.91,-10.45 -3.26,0 -6,1.46 -8.31,4.54 V 83.7 c 0,6.51 1,7.71 5.91,7.71 v 1.37 h -16.88 z"
         id="path3"
         inkscape:label="hope" />
      <path
         class="cls-1"
         name="o"
         d="m 138.02951,43.48 a 8.24,8.24 0 1 1 -8.24,-8.15 8,8 0 0 1 8.24,8.15 z m -13.22,0 c 0,3.85 1,7.35 5,7.35 4,0 5,-3.5 5,-7.35 0,-3.85 -1.05,-7.34 -5,-7.34 -3.95,0 -5,3.49 -5,7.34 z"
         id="path12"
         inkscape:label="of" />
      <path
         class="cls-1"
         name="b"
         d="m 109.85001,0 v 14.56 a 7.41,7.41 0 0 1 5.49,-2.56 c 3.66,0 7.75,2.47 7.75,8.3 a 8.55,8.55 0 0 1 -8.9,8.82 c -2.17,0 -3.7,-0.69 -4.68,-0.69 a 9.47,9.47 0 0 0 -2.3,0.69 0.32,0.32 0 0 1 -0.34,-0.35 V 5 c 0,-1.32 -0.34,-1.49 -1.11,-1.87 -0.77,-0.38 -0.76,-0.38 -0.76,-0.56 V 2.09 c 0,-0.35 0.21,-0.52 0.63,-0.69 l 3.58,-1.4 z m 0,23.5 c 0,3.41 2.17,4.77 4.51,4.77 3.28,0 5.33,-2.38 5.33,-7.06 0,-4.94 -2.13,-7.75 -5.45,-7.75 a 6.34,6.34 0 0 0 -4.39,2.17 z"
         id="path6"
         inkscape:label="bridge" />
    </g>
  </g>
  <metadata
     id="metadata28">
    <rdf:RDF>
      <cc:Work
         rdf:about="">
        <dc:title>boh_hbg_white_green</dc:title>
      </cc:Work>
    </rdf:RDF>
  </metadata>
</svg>
